<?xml version="1.0" encoding="UTF-8"?>
<!DOCTYPE svg PUBLIC "-//W3C//DTD SVG 1.1//EN" "http://www.w3.org/Graphics/SVG/1.1/DTD/svg11.dtd">
<svg version="1.2" width="297mm" height="210mm" viewBox="0 0 29700 21000" preserveAspectRatio="xMidYMid" fill-rule="evenodd" stroke-width="28.222" stroke-linejoin="round" xmlns="http://www.w3.org/2000/svg" xmlns:ooo="http://xml.openoffice.org/svg/export" xmlns:xlink="http://www.w3.org/1999/xlink" xmlns:presentation="http://sun.com/xmlns/staroffice/presentation" xmlns:smil="http://www.w3.org/2001/SMIL20/" xmlns:anim="urn:oasis:names:tc:opendocument:xmlns:animation:1.0" xml:space="preserve">
 <defs class="ClipPathGroup">
  <clipPath id="presentation_clip_path" clipPathUnits="userSpaceOnUse">
   <rect x="0" y="0" width="29700" height="21000"/>
  </clipPath>
  <clipPath id="presentation_clip_path_shrink" clipPathUnits="userSpaceOnUse">
   <rect x="29" y="21" width="29641" height="20958"/>
  </clipPath>
 </defs>
 <defs class="TextShapeIndex">
  <g ooo:slide="id1" ooo:id-list="id3 id4 id5 id6 id7 id8"/>
 </defs>
 <defs class="EmbeddedBulletChars">
  <g id="bullet-char-template-57356" transform="scale(0.00048828125,-0.00048828125)">
   <path d="M 580,1141 L 1163,571 580,0 -4,571 580,1141 Z"/>
  </g>
  <g id="bullet-char-template-57354" transform="scale(0.00048828125,-0.00048828125)">
   <path d="M 8,1128 L 1137,1128 1137,0 8,0 8,1128 Z"/>
  </g>
  <g id="bullet-char-template-10146" transform="scale(0.00048828125,-0.00048828125)">
   <path d="M 174,0 L 602,739 174,1481 1456,739 174,0 Z M 1358,739 L 309,1346 659,739 1358,739 Z"/>
  </g>
  <g id="bullet-char-template-10132" transform="scale(0.00048828125,-0.00048828125)">
   <path d="M 2015,739 L 1276,0 717,0 1260,543 174,543 174,936 1260,936 717,1481 1274,1481 2015,739 Z"/>
  </g>
  <g id="bullet-char-template-10007" transform="scale(0.00048828125,-0.00048828125)">
   <path d="M 0,-2 C -7,14 -16,27 -25,37 L 356,567 C 262,823 215,952 215,954 215,979 228,992 255,992 264,992 276,990 289,987 310,991 331,999 354,1012 L 381,999 492,748 772,1049 836,1024 860,1049 C 881,1039 901,1025 922,1006 886,937 835,863 770,784 769,783 710,716 594,584 L 774,223 C 774,196 753,168 711,139 L 727,119 C 717,90 699,76 672,76 641,76 570,178 457,381 L 164,-76 C 142,-110 111,-127 72,-127 30,-127 9,-110 8,-76 1,-67 -2,-52 -2,-32 -2,-23 -1,-13 0,-2 Z"/>
  </g>
  <g id="bullet-char-template-10004" transform="scale(0.00048828125,-0.00048828125)">
   <path d="M 285,-33 C 182,-33 111,30 74,156 52,228 41,333 41,471 41,549 55,616 82,672 116,743 169,778 240,778 293,778 328,747 346,684 L 369,508 C 377,444 397,411 428,410 L 1163,1116 C 1174,1127 1196,1133 1229,1133 1271,1133 1292,1118 1292,1087 L 1292,965 C 1292,929 1282,901 1262,881 L 442,47 C 390,-6 338,-33 285,-33 Z"/>
  </g>
  <g id="bullet-char-template-9679" transform="scale(0.00048828125,-0.00048828125)">
   <path d="M 813,0 C 632,0 489,54 383,161 276,268 223,411 223,592 223,773 276,916 383,1023 489,1130 632,1184 813,1184 992,1184 1136,1130 1245,1023 1353,916 1407,772 1407,592 1407,412 1353,268 1245,161 1136,54 992,0 813,0 Z"/>
  </g>
  <g id="bullet-char-template-8226" transform="scale(0.00048828125,-0.00048828125)">
   <path d="M 346,457 C 273,457 209,483 155,535 101,586 74,649 74,723 74,796 101,859 155,911 209,963 273,989 346,989 419,989 480,963 531,910 582,859 608,796 608,723 608,648 583,586 532,535 482,483 420,457 346,457 Z"/>
  </g>
  <g id="bullet-char-template-8211" transform="scale(0.00048828125,-0.00048828125)">
   <path d="M -4,459 L 1135,459 1135,606 -4,606 -4,459 Z"/>
  </g>
  <g id="bullet-char-template-61548" transform="scale(0.00048828125,-0.00048828125)">
   <path d="M 173,740 C 173,903 231,1043 346,1159 462,1274 601,1332 765,1332 928,1332 1067,1274 1183,1159 1299,1043 1357,903 1357,740 1357,577 1299,437 1183,322 1067,206 928,148 765,148 601,148 462,206 346,322 231,437 173,577 173,740 Z"/>
  </g>
 </defs>
 <defs class="TextEmbeddedBitmaps"/>
 <g>
  <g id="id2" class="Master_Slide">
   <g id="bg-id2" class="Background"/>
   <g id="bo-id2" class="BackgroundObjects"/>
  </g>
 </g>
 <g class="SlideGroup">
  <g>
   <g id="container-id1">
    <g id="id1" class="Slide" clip-path="url(#presentation_clip_path)">
     <g class="Page">
      <g class="Graphic">
       <g id="id3">
        <rect class="BoundingBox" stroke="none" fill="none" x="2305" y="1005" width="10696" height="10696"/>
        <path fill="rgb(0,0,0)" stroke="none" d="M 8526,1987 L 5033,1987 C 4551,1987 4165,2378 4165,2860 L 4160,9845 C 4160,10327 4547,10718 5029,10718 L 10272,10718 C 10754,10718 11145,10327 11145,9845 L 11145,4606 8526,1987 8526,1987 Z M 9399,8972 L 5906,8972 5906,8099 9399,8099 9399,8972 9399,8972 Z M 9399,7226 L 5906,7226 5906,6353 9399,6353 9399,7226 9399,7226 Z M 8089,5043 L 8089,2642 10490,5043 8089,5043 8089,5043 Z"/>
       </g>
      </g>
      <g class="Graphic">
       <g id="id4">
        <rect class="BoundingBox" stroke="none" fill="none" x="9805" y="1105" width="10596" height="10596"/>
        <path fill="rgb(0,0,0)" stroke="none" d="M 15967,2078 L 12508,2078 C 12030,2078 11647,2465 11647,2943 L 11643,9862 C 11643,10340 12026,10727 12503,10727 L 17697,10727 C 18175,10727 18562,10340 18562,9862 L 18562,4673 15967,2078 15967,2078 Z M 16832,8997 L 13373,8997 13373,8132 16832,8132 16832,8997 16832,8997 Z M 16832,7267 L 13373,7267 13373,6403 16832,6403 16832,7267 16832,7267 Z M 15535,5105 L 15535,2727 17913,5105 15535,5105 15535,5105 Z"/>
       </g>
      </g>
      <g class="Graphic">
       <g id="id5">
        <rect class="BoundingBox" stroke="none" fill="none" x="2405" y="10005" width="10596" height="10596"/>
        <path fill="rgb(0,0,0)" stroke="none" d="M 8567,10978 L 5108,10978 C 4630,10978 4247,11365 4247,11843 L 4243,18762 C 4243,19240 4626,19627 5103,19627 L 10297,19627 C 10775,19627 11162,19240 11162,18762 L 11162,13573 8567,10978 8567,10978 Z M 9432,17897 L 5973,17897 5973,17032 9432,17032 9432,17897 9432,17897 Z M 9432,16167 L 5973,16167 5973,15303 9432,15303 9432,16167 9432,16167 Z M 8135,14005 L 8135,11627 10513,14005 8135,14005 8135,14005 Z"/>
       </g>
      </g>
      <g class="Graphic">
       <g id="id6">
        <rect class="BoundingBox" stroke="none" fill="none" x="17100" y="1105" width="10596" height="10596"/>
        <path fill="rgb(0,0,0)" stroke="none" d="M 23262,2078 L 19803,2078 C 19325,2078 18942,2465 18942,2943 L 18938,9862 C 18938,10340 19321,10727 19798,10727 L 24992,10727 C 25470,10727 25857,10340 25857,9862 L 25857,4673 23262,2078 23262,2078 Z M 24127,8997 L 20668,8997 20668,8132 24127,8132 24127,8997 24127,8997 Z M 24127,7267 L 20668,7267 20668,6403 24127,6403 24127,7267 24127,7267 Z M 22830,5105 L 22830,2727 25208,5105 22830,5105 22830,5105 Z"/>
       </g>
      </g>
      <g class="Graphic">
       <g id="id7">
        <rect class="BoundingBox" stroke="none" fill="none" x="9705" y="9905" width="10696" height="10696"/>
        <path fill="rgb(0,0,0)" stroke="none" d="M 15926,10887 L 12433,10887 C 11951,10887 11565,11278 11565,11760 L 11560,18745 C 11560,19227 11947,19618 12429,19618 L 17672,19618 C 18154,19618 18545,19227 18545,18745 L 18545,13506 15926,10887 15926,10887 Z M 16799,17872 L 13306,17872 13306,16999 16799,16999 16799,17872 16799,17872 Z M 16799,16126 L 13306,16126 13306,15253 16799,15253 16799,16126 16799,16126 Z M 15489,13943 L 15489,11542 17890,13943 15489,13943 15489,13943 Z"/>
       </g>
      </g>
      <g class="Graphic">
       <g id="id8">
        <rect class="BoundingBox" stroke="none" fill="none" x="17005" y="9900" width="10696" height="10696"/>
        <path fill="rgb(0,0,0)" stroke="none" d="M 23226,10882 L 19733,10882 C 19251,10882 18865,11273 18865,11755 L 18860,18740 C 18860,19222 19247,19613 19729,19613 L 24972,19613 C 25454,19613 25845,19222 25845,18740 L 25845,13501 23226,10882 23226,10882 Z M 24099,17867 L 20606,17867 20606,16994 24099,16994 24099,17867 24099,17867 Z M 24099,16121 L 20606,16121 20606,15248 24099,15248 24099,16121 24099,16121 Z M 22789,13938 L 22789,11537 25190,13938 22789,13938 22789,13938 Z"/>
       </g>
      </g>
     </g>
    </g>
   </g>
  </g>
 </g>
</svg>